<svg xmlns="http://www.w3.org/2000/svg" width="1005" height="600"><rect width="1005" height="600" x="0" y="0" fill="#FFFFFF" id="backgorund"/><g transform="translate(402.5,300)" id="viz"><path fill="rgb(251, 248, 176)" display="" d="M0.49999900911674494,-288.9995674754391A289,289,0,0,1,144.0667718939574,-250.53096662100364L72.06655712218222,-125.82293648041778A145,145,0,0,0,0.49999900911671447,-144.9991379318887Z"><title>5</title></path><path fill="rgb(248, 142, 83)" display="" d="M144.93279558148166,-250.03096761188695A289,289,0,0,1,144.93279558148177,250.03096761188687L72.93258080970651,125.32293747130105A145,145,0,0,0,72.93258080970645,-125.32293747130107Z"><title>25</title></path><path fill="rgb(94, 79, 162)" display="" d="M144.0667718939575,250.53096662100359A289,289,0,0,1,-204.0000012319291,204.7071066117953L-102.17632100790901,102.88342638777506A145,145,0,0,0,72.06655712218227,125.82293648041775Z"><title>15</title></path><path fill="rgb(137, 207, 165)" display="" d="M-204.70710661179507,204.00000123192933A289,289,0,0,1,-288.9995674754391,0.4999990091167627L-144.9991379318887,0.49999900911672335A145,145,0,0,0,-102.88342638777497,102.17632100790912Z"><title>10</title></path><path fill="rgb(158, 1, 66)" display="" d="M-288.9995674754391,-0.4999990091166919A289,289,0,0,1,-0.499999009116652,-288.9995674754391L-0.49999900911673223,-144.9991379318887A145,145,0,0,0,-144.9991379318887,-0.4999990091166878Z"><title>20</title></path></g><g id="labels" transform="translate(402.5,300)" text-anchor="middle"><text transform="rotate(90) translate(72.5,0) rotate(180)"><tspan x="0" y="4" style="font-family: Arial, sans-serif; font-size: 10px; fill: black; font-weight: normal; font-style: italic;"/></text><text transform="rotate(-75) translate(217.5,0) rotate(0)"><tspan x="0" y="-2" style="font-family: Arial, sans-serif; font-size: 10px; fill: black; font-weight: bold;">north</tspan><tspan x="0" y="10" style="font-family: Arial, sans-serif; font-size: 10px; fill: black; font-weight: normal;">2</tspan></text><text transform="rotate(-1.4210854715202004e-14) translate(217.5,0) rotate(0)"><tspan x="0" y="-2" style="font-family: Arial, sans-serif; font-size: 10px; fill: black; font-weight: bold;">east </tspan><tspan x="0" y="10" style="font-family: Arial, sans-serif; font-size: 10px; fill: black; font-weight: normal;">8</tspan></text><text transform="rotate(97.5) translate(217.5,0) rotate(180)"><tspan x="0" y="-2" style="font-family: Arial, sans-serif; font-size: 10px; fill: black; font-weight: bold;">west </tspan><tspan x="0" y="10" style="font-family: Arial, sans-serif; font-size: 10px; fill: black; font-weight: normal;">5</tspan></text><text transform="rotate(157.49999999999997) translate(217.5,0) rotate(180)"><tspan x="0" y="-2" style="font-family: Arial, sans-serif; font-size: 10px; fill: black; font-weight: bold;">south</tspan><tspan x="0" y="10" style="font-family: Arial, sans-serif; font-size: 10px; fill: black; font-weight: normal;">3</tspan></text><text transform="rotate(225) translate(217.5,0) rotate(180)"><tspan x="0" y="-2" style="font-family: Arial, sans-serif; font-size: 10px; fill: black; font-weight: bold;">central</tspan><tspan x="0" y="10" style="font-family: Arial, sans-serif; font-size: 10px; fill: black; font-weight: normal;">6</tspan></text></g><g id="legend" transform="translate(805,10)"><g transform="translate(5,0)"><g class="legendColor" transform="translate(0,0)"><g class="legendCells" transform="translate(0,15.5)"><g class="cell" transform="translate(0, 0)"><rect class="swatch" height="15" width="15" style="fill: rgb(158, 1, 66);"/><text class="label" transform="translate( 20, 12.5)" font-family="&quot;Arial&quot;, sans-serif" font-size="10px"><tspan x="0" dy="0em">central</tspan></text></g><g class="cell" transform="translate(0, 20.5)"><rect class="swatch" height="15" width="15" style="fill: rgb(248, 142, 83);"/><text class="label" transform="translate( 20, 12.5)" font-family="&quot;Arial&quot;, sans-serif" font-size="10px"><tspan x="0" dy="0em">east</tspan></text></g><g class="cell" transform="translate(0, 41)"><rect class="swatch" height="15" width="15" style="fill: rgb(251, 248, 176);"/><text class="label" transform="translate( 20, 12.5)" font-family="&quot;Arial&quot;, sans-serif" font-size="10px"><tspan x="0" dy="0em">north</tspan></text></g><g class="cell" transform="translate(0, 61.5)"><rect class="swatch" height="15" width="15" style="fill: rgb(137, 207, 165);"/><text class="label" transform="translate( 20, 12.5)" font-family="&quot;Arial&quot;, sans-serif" font-size="10px"><tspan x="0" dy="0em">south</tspan></text></g><g class="cell" transform="translate(0, 82)"><rect class="swatch" height="15" width="15" style="fill: rgb(94, 79, 162);"/><text class="label" transform="translate( 20, 12.5)" font-family="&quot;Arial&quot;, sans-serif" font-size="10px"><tspan x="0" dy="0em">west</tspan></text></g></g><text class="legendTitle" font-family="&quot;Arial&quot;, sans-serif" font-size="12px" font-weight="bold"><tspan x="0" dy="0em">Area</tspan></text></g></g></g></svg>